<?xml version="1.0" standalone="no"?>
<!DOCTYPE svg PUBLIC "-//W3C//DTD SVG 20010904//EN"
 "http://www.w3.org/TR/2001/REC-SVG-20010904/DTD/svg10.dtd">
<svg version="1.0" xmlns="http://www.w3.org/2000/svg"
 width="118.000000pt" height="95.000000pt" viewBox="0 0 118.000000 95.000000"
 preserveAspectRatio="xMidYMid meet">

<g transform="translate(0.000000,95.000000) scale(0.100000,-0.100000)"
fill="#000000" stroke="none">
<path d="M780 907 c-65 -34 -90 -76 -120 -205 l-12 -53 -46 4 -45 3 -13 52
c-18 68 -77 157 -116 173 -26 10 -35 10 -57 -2 -49 -28 -37 -129 27 -222 l35
-50 -17 -52 c-9 -28 -16 -59 -16 -68 0 -9 -15 -20 -35 -27 -42 -14 -61 -36
-22 -27 14 4 32 9 40 13 25 9 30 -28 7 -59 -26 -34 -19 -48 10 -22 20 18 21
18 53 -13 68 -66 231 -69 294 -6 20 20 31 24 61 19 l37 -6 -28 18 c-40 26 -35
67 11 71 39 4 42 19 5 24 -23 3 -31 12 -50 63 l-23 59 24 36 c78 114 106 230
66 270 -23 23 -36 25 -70 7z m56 -75 c1 -29 -3 -55 -7 -58 -5 -3 -9 4 -9 16 0
29 -18 60 -35 60 -7 0 -27 -17 -44 -37 -23 -28 -31 -33 -31 -19 0 29 75 98
102 94 20 -3 23 -9 24 -56z m-386 6 c12 -13 28 -36 36 -53 12 -25 8 -23 -24
14 -44 51 -69 51 -79 0 -3 -19 -9 -26 -13 -19 -7 11 -5 33 6 68 6 20 52 14 74
-10z m348 -57 c2 -20 -8 -57 -29 -102 -32 -70 -32 -71 -19 -136 13 -69 8 -82
-32 -83 -9 0 -20 -5 -24 -12 -5 -8 3 -9 30 -5 31 5 37 3 34 -11 -2 -11 -11
-16 -26 -14 -26 4 -29 -13 -5 -27 50 -27 -88 -79 -161 -60 -17 4 -43 11 -58
14 -35 7 -66 51 -49 68 17 17 13 29 -9 22 -27 -9 -25 9 3 23 l22 11 -22 7
c-27 7 -29 28 -8 77 21 51 19 79 -10 133 -24 46 -34 124 -16 124 14 0 65 -71
88 -125 19 -45 25 -51 60 -57 21 -4 52 -7 70 -7 29 -1 33 3 47 47 20 59 83
155 99 149 7 -2 13 -18 15 -36z"/>
<path d="M503 543 c-18 -6 -16 -40 1 -46 8 -3 20 1 27 9 10 12 9 18 -2 28 -8
8 -20 12 -26 9z"/>
<path d="M640 511 c0 -27 19 -36 37 -18 18 18 9 37 -18 37 -12 0 -19 -7 -19
-19z"/>
<path d="M561 461 c-12 -8 -13 -12 -1 -26 11 -14 11 -19 -3 -33 -11 -10 -17
-12 -17 -4 0 7 -4 12 -10 12 -21 0 -9 -35 16 -47 31 -14 91 -6 99 15 8 21 -2
27 -20 12 -12 -10 -16 -9 -21 4 -3 9 -1 23 6 31 26 31 -12 59 -49 36z"/>
<path d="M150 596 c-73 -13 -90 -21 -90 -42 0 -9 11 -14 36 -14 21 0 47 -8 61
-20 14 -11 31 -20 38 -20 21 0 65 40 65 59 0 16 -30 53 -41 50 -2 0 -33 -6
-69 -13z m68 -48 c-3 -7 -11 -13 -18 -13 -7 0 -15 6 -17 13 -3 7 4 12 17 12
13 0 20 -5 18 -12z"/>
<path d="M951 530 c-6 -28 -11 -53 -11 -56 0 -5 109 -54 121 -54 18 0 8 38
-11 43 -17 4 -19 9 -10 32 13 35 13 35 -10 35 -11 0 -20 -7 -20 -15 0 -8 -4
-15 -9 -15 -6 0 -6 12 -1 30 7 25 5 32 -10 40 -27 15 -27 14 -39 -40z"/>
<path d="M173 448 c-56 -22 -75 -55 -28 -46 28 6 30 1 13 -54 -8 -29 -9 -41 0
-50 15 -15 48 13 56 48 4 15 14 24 26 24 29 0 47 42 32 75 -14 30 -30 30 -99
3z m69 -40 c-15 -15 -26 -4 -18 18 5 13 9 15 18 6 9 -9 9 -15 0 -24z"/>
<path d="M915 442 c-17 -12 -45 -69 -45 -91 0 -25 25 -28 38 -5 8 14 12 12 29
-12 11 -16 18 -35 16 -41 -3 -8 4 -13 19 -13 18 0 29 9 41 35 9 20 17 42 17
50 0 18 -21 20 -38 3 -17 -17 -53 18 -50 50 3 26 -10 37 -27 24z"/>
<path d="M271 331 c-26 -7 -55 -42 -66 -78 -8 -28 25 -63 60 -63 29 0 90 51
98 81 4 14 -2 29 -18 45 -25 25 -34 27 -74 15z m49 -44 c0 -25 -31 -57 -56
-57 -29 0 -32 24 -7 52 18 21 63 24 63 5z"/>
<path d="M820 301 c0 -16 7 -34 15 -41 12 -10 17 -8 26 13 15 32 6 57 -21 57
-15 0 -20 -7 -20 -29z"/>
<path d="M723 246 c-50 -24 -61 -60 -17 -54 24 3 28 -1 39 -45 14 -55 27 -72
49 -64 21 8 20 30 -4 77 -25 49 -25 56 1 63 26 7 22 42 -6 43 -11 1 -39 -8
-62 -20z"/>
<path d="M372 196 c-56 -58 -74 -86 -55 -86 4 0 17 10 29 21 16 15 30 20 47
15 21 -5 25 -12 23 -38 -1 -40 25 -46 35 -8 13 46 10 160 -4 160 -7 0 -40 -29
-75 -64z"/>
<path d="M562 223 c-18 -7 -42 -58 -42 -90 0 -58 62 -97 98 -61 18 18 14 28
-12 28 -32 0 -45 19 -39 53 4 18 15 32 30 38 21 8 23 12 13 24 -13 15 -25 17
-48 8z"/>
</g>
</svg>
